<?xml version="1.0" encoding="UTF-8" standalone="no"?>
<!DOCTYPE svg PUBLIC "-//W3C//DTD SVG 1.1//EN" "http://www.w3.org/Graphics/SVG/1.1/DTD/svg11.dtd">
<svg width="100%" height="100%" viewBox="0 0 683 683" version="1.1" xmlns="http://www.w3.org/2000/svg" xmlns:xlink="http://www.w3.org/1999/xlink" xml:space="preserve" xmlns:serif="http://www.serif.com/" style="fill-rule:evenodd;clip-rule:evenodd;stroke-linejoin:round;stroke-miterlimit:2;">
    <g transform="matrix(1.33333,0,0,1.33333,0,0)">
        <rect id="Artboard1" x="0" y="0" width="512" height="512" style="fill:none;"/>
        <g id="Artboard11" serif:id="Artboard1">
            <g transform="matrix(1,0,0,1,0.12602,-0.123406)">
                <g id="Top">
                    <g>
                        <g id="Blue-Top" serif:id="Blue Top" transform="matrix(1,0,0,1,-0.732045,0.443522)">
                            <path d="M256,127.692L192.334,65.899C192.334,65.899 47.173,204.949 18.335,233.971C16.892,235.423 17.922,238.545 19.305,240.035C20.688,241.526 24.007,242.911 26.63,242.914C44.739,242.93 109.523,241.026 127.957,240.135C131.162,239.98 134.333,238.779 137.235,237.569C140.124,236.363 143.07,234.997 145.368,232.871C165.162,214.558 256,127.692 256,127.692Z" style="fill:rgb(99,137,198);"/>
                        </g>
                        <g id="Purple-Top" serif:id="Purple Top" transform="matrix(0.999997,0.00228151,-0.00228151,0.999997,-0.584708,0.00966883)">
                            <path d="M256,14.732C259.844,14.457 264.491,14.446 267.326,17.056C306.478,53.113 453.391,194.193 490.917,231.074C492.685,232.81 493.292,236.576 492.487,238.339C491.682,240.102 488.488,241.639 486.085,241.652C467.636,241.752 402.04,240.269 381.793,238.941C375.815,238.549 369.092,237.652 364.605,233.682C343.639,215.133 256,127.645 256,127.645L192.334,65.898C192.334,65.898 231.815,27.365 242.426,18.837C246.111,15.876 251.85,15.028 256,14.732Z" style="fill:rgb(149,80,160);"/>
                        </g>
                    </g>
                </g>
            </g>
            <g transform="matrix(1,0,0,1,-0.0243914,0.731623)">
                <g id="Mid">
                    <g>
                        <path id="Green-Mid" serif:id="Green Mid" d="M207.751,225.289C207.751,225.289 98.531,330.009 76.784,351.82C75.757,352.85 76.414,355.137 77.266,356.158C78.117,357.178 80.239,357.936 81.892,357.943C95.531,358.008 143.9,357.708 159.097,356.543C164.1,356.16 169.314,354.276 173.073,350.953C189.106,336.783 255.293,271.524 255.293,271.524L207.751,225.289Z" style="fill:rgb(61,174,91);"/>
                        <path id="Yellow-Mid" serif:id="Yellow Mid" d="M207.751,225.289C207.751,225.289 235.734,197.518 243.776,191.072C247.16,188.359 252.586,186.975 256,186.614C258.84,186.313 262.163,186.961 264.258,188.903C293.657,216.168 404.287,322.495 432.398,350.201C433.577,351.363 433.914,353.848 432.925,355.14C431.936,356.431 428.814,357.923 426.466,357.952C412.973,358.117 366.634,357.259 351.969,356.133C347.193,355.766 342.022,354.411 338.475,351.193C314.439,329.386 207.751,225.289 207.751,225.289Z" style="fill:rgb(251,196,32);"/>
                    </g>
                </g>
            </g>
            <g transform="matrix(1,0,0,1,2.85515,0.759241)">
                <g id="Bottom">
                    <g>
                        <path id="Bottom-Red" serif:id="Bottom Red" d="M205.101,363.774C205.101,363.774 97.609,466.794 75.677,488.362C74.421,489.596 72.786,491.803 73.505,493.178C74.224,494.553 77.544,496.574 79.99,496.613C93.979,496.837 142.188,495.961 157.439,494.52C162.585,494.034 167.634,491.406 171.494,487.967C187.322,473.862 252.412,409.893 252.412,409.893L205.101,363.774Z" style="fill:rgb(235,71,57);"/>
                        <path id="Bottom-Blue" serif:id="Bottom Blue" d="M205.101,363.774C205.101,363.774 232.747,336.128 240.633,329.785C243.87,327.18 248.83,325.964 252.415,325.714C255.761,325.48 259.677,326.009 262.144,328.281C291.592,355.409 401.143,460.936 429.1,488.48C430.316,489.679 431.018,492.349 429.883,493.544C428.749,494.738 424.919,495.641 422.293,495.646C408.26,495.672 360.688,495.177 345.681,493.701C340.671,493.209 335.948,490.21 332.25,486.793C308.82,465.138 205.101,363.774 205.101,363.774Z" style="fill:rgb(99,137,198);"/>
                    </g>
                </g>
            </g>
        </g>
    </g>
</svg>
